<svg width="256" height="256" viewBox="0 0 26 26" xmlns="http://www.w3.org/2000/svg"><rect x="0" y="0" width="26" height="26" rx="8" fill="none"/><svg xmlns="http://www.w3.org/2000/svg" viewBox="0 0 26 26" fill="#000000" x="0" y="0" width="26" height="26"><g fill="#000000" fill-rule="evenodd" clip-rule="evenodd"><path d="M13 8.5a4.5 4.5 0 1 0 0 9a4.5 4.5 0 0 0 0-9ZM6.5 13a6.5 6.5 0 1 1 13 0a6.5 6.5 0 0 1-13 0Z"/><path d="M13 24c6.075 0 11-4.925 11-11S19.075 2 13 2S2 6.925 2 13s4.925 11 11 11Zm0 2c7.18 0 13-5.82 13-13S20.18 0 13 0S0 5.82 0 13s5.82 13 13 13Z"/></g></svg></svg>